PathFileType	4	(X/Y/Z)	3_1_38_p0_0-472_filt_butterworth.trc
DataRate	CameraRate	NumFrames	NumMarkers	Units	OrigDataRate	OrigDataStartFrame	OrigNumFrames
59.0	59.0	4	27	m	59.0	0	472
Frame#	Time	RHip			RKnee			RAnkle			RBigToe			RSmallToe			RHeel			LHip			LKnee			LAnkle			LBigToe			LSmallToe			LHeel			Neck			Head			Nose			RShoulder			RElbow			RWrist			RThumb			RIndex			RPinky			LShoulder			LElbow			LWrist			LThumb			LIndex			LPinky			
		X1	Y1	Z1	X2	Y2	Z2	X3	Y3	Z3	X4	Y4	Z4	X5	Y5	Z5	X6	Y6	Z6	X7	Y7	Z7	X8	Y8	Z8	X9	Y9	Z9	X10	Y10	Z10	X11	Y11	Z11	X12	Y12	Z12	X13	Y13	Z13	X14	Y14	Z14	X15	Y15	Z15	X16	Y16	Z16	X17	Y17	Z17	X18	Y18	Z18	X19	Y19	Z19	X20	Y20	Z20	X21	Y21	Z21	X22	Y22	Z22	X23	Y23	Z23	X24	Y24	Z24	X25	Y25	Z25	X26	Y26	Z26	X27	Y27	Z27	
0	0.0	0.21607716724929832	0.9234507716922682	0.44896694712517843	0.21661483875355433	0.48341829437226513	0.42935240922637724	0.1722569812109821	0.05504419367850807	0.46109882789954365	0.16474145243855884	0.10312798721763904	0.24848961287063137	0.20921595644844782	0.08170752988409062	0.29765351535393225	0.15560574788953704	-0.026503634695097845	0.5270755767090279	-0.005850767219457109	0.9252058372098311	0.43670416274406565	-0.024790902155195936	0.4849879219724365	0.41556566900107367	-0.0037381258552659203	0.07505469608741216	0.4184542507842966	0.013172502967446539	0.11643868484122703	0.217330003397439	-0.04274960176285812	0.09671787221514928	0.27718887381963786	-0.0004287260722562375	-0.004800387654201016	0.511735093667063	0.1390240930451355	1.518640784938977	0.40525931036591845	0.14950362183469404	1.7425009759449328	0.39227534584477625	0.1508261008838016	1.6346673864474697	0.32424069858923155	0.2938750174501164	1.415585322390564	0.45307340093890724	0.37024068829900725	1.1643093557477926	0.38371284174004855	0.22879232036119737	1.0478046575669604	0.25993383033246414	0.10211007523419739	1.0118193531155995	0.22431682787547197	0.10163331239360927	0.9888464072125671	0.22466132677230774	0.1607679571890043	0.9974983568370871	0.17503730323821876	-0.028302044396171306	1.430950394309332	0.4325977089303369	-0.10393680941149089	1.179817743704647	0.35252901236547707	0.08381182511832173	1.078847405508075	0.20878854978217942	0.17517785113279918	1.0626993257842898	0.17746067805042753	0.18093208303785735	1.0194720651993299	0.18835187342993087	0.13754781282441936	0.9737169896180203	0.2342691012354936	
1	0.0169491525423728	0.21501905411490807	0.9234619345143792	0.4500457947787446	0.216842576581862	0.48468804300344376	0.4293755303058937	0.17214042091566625	0.05502846619834854	0.4621713357916333	0.16600098231685834	0.09998622547457477	0.2532341373150387	0.21017474701865654	0.08054477479891031	0.29881505090317634	0.15476693882648548	-0.026990833584175103	0.5271259075632665	-0.005734030380116419	0.9255721521594925	0.4362812365428924	-0.022746480564319056	0.48777900858516654	0.4125887013556863	-0.0029297215738779544	0.07350299964188328	0.41916386650307735	0.01505068716992489	0.11643692291989605	0.21809081441391373	-0.04258012598729391	0.09672907120150849	0.2772582230014726	-0.0003214762071964655	-0.003437877540521883	0.5094602699598093	0.13903153931414813	1.5182737992813717	0.4051488729198518	0.14948553010339605	1.7438844278358598	0.39249005130133274	0.15018739431106146	1.634630487114403	0.3245795573734921	0.2954941255649918	1.4142781430637368	0.45945255826340364	0.36980103673219233	1.164405807788719	0.3834923163165257	0.22688016271672903	1.047284079712185	0.2594166023309957	0.10232691848105463	1.0127686437135395	0.22660796645224374	0.09817565296458176	0.9877703476041138	0.23224006852174595	0.15000756956706307	0.9842592043332142	0.1947621644030635	-0.02559993677258217	1.4321695333528348	0.42656550218040257	-0.10089983590032994	1.1785908952916402	0.3468560566360964	0.08422208779739848	1.0765013259156317	0.2157183161144482	0.17492153757724763	1.0564983335366966	0.18230565759918527	0.181536850452161	1.0159096687576976	0.1939356718156748	0.13748333843483834	0.971382105663207	0.23669290057008496	
2	0.0338983050847457	0.2143204651956488	0.9235697262985968	0.450681066557192	0.21704097926200333	0.4857739693541747	0.42938972353310917	0.1719290291217297	0.05484919909941751	0.4633650659203785	0.1665732734244503	0.09860234058457491	0.25524994318709937	0.21055463218121717	0.08018891382621128	0.29919305687301734	0.1541371155721869	-0.02741406164928712	0.5272026942798376	-0.0056438583757571345	0.9259392219366018	0.4359297492018869	-0.021032649474406268	0.49012086485059436	0.40999433681285824	-0.0021732848128231405	0.07215550575837376	0.419811693185101	0.016241334127689543	0.11629335037364452	0.21858961882015188	-0.04247188789804146	0.09672957214678252	0.2773085131378251	-0.00016316355896147413	-0.002583794509838269	0.5078299214154498	0.1390547839811184	1.5177216474670863	0.4050136606619307	0.14948370911160772	1.7448338283340368	0.39263093163539586	0.14996245659688817	1.6346485330374536	0.32446839479521533	0.29622201538567305	1.4137570605789207	0.462344752929336	0.369161519228189	1.1644745002956607	0.3832699045771254	0.22554611841337058	1.045913677669896	0.25901749483724995	0.10234739835330055	1.0114375420397343	0.22799844786961657	0.09671096284733659	0.9862418718388652	0.2357805377547025	0.1448824980529595	0.975416525745481	0.2054608284915594	-0.02385914285020574	1.4329279133440995	0.4227838464617458	-0.09825780973122694	1.1773945134605113	0.3431720989147261	0.08536215883636383	1.074109046908868	0.22134907309139154	0.17541454767866313	1.0506049977495122	0.18674973222915991	0.18208984933697428	1.0127818510079138	0.19741461729703697	0.13776758748345724	0.9693433259017094	0.23860051714952285	
3	0.0508474576271186	0.21394773637108722	0.9237642536639333	0.4509149988009901	0.2172113613070302	0.4866861873918578	0.42939561192362286	0.1716348579382973	0.05452217398438404	0.46465979079989617	0.16660827698880423	0.09860424106688859	0.25517867739611444	0.21045831389130965	0.08045416641517951	0.2989570885962077	0.1536958226991318	-0.02777858754579303	0.5273028998938178	-0.005577832999454596	0.9263029078979776	0.43564358705354717	-0.01962305128539887	0.4920456873307746	0.407758346731407	-0.0014711750806483486	0.07099962975875866	0.4203984923367282	0.0168768014696125	0.1160747127405863	0.2188702829403694	-0.04240835501145385	0.09672310830633998	0.27734275866850566	3.631568945383656e-05	-0.002197023502988796	0.5067918426020921	0.13908926995610932	1.5170562120626045	0.40486387444872013	0.14949433688072195	1.7454150250558214	0.3927079286931262	0.15011749599794527	1.634726227260075	0.3238856965948514	0.296258784223645	1.4138022458260031	0.4625281304390723	0.3684010299538674	1.1645169743933628	0.38305460378808753	0.22472127530245964	1.0439501527779242	0.2587316147545418	0.10222740429353593	1.008417777110178	0.22866024785099692	0.09681677893156185	0.9844165289709828	0.23618474183142713	0.14400134256753652	0.970107383062113	0.20918172857945727	-0.022897670372147842	1.4333165401050534	0.4208092966078939	-0.09600027929766403	1.176270772209933	0.3411044627879587	0.08699832271985337	1.071709342584926	0.2258755043471215	0.17646526376608204	1.0451130976908807	0.19072879474480778	0.18257448525797348	1.0100251942637795	0.19924101082230125	0.13827442149748273	0.9675338316253901	0.24014599110347548	
